<svg width="40" height="40" viewBox="0 0 40 40" fill="none" xmlns="http://www.w3.org/2000/svg">
<path fill-rule="evenodd" clip-rule="evenodd" d="M6.46447 3.13113C7.40215 2.19345 8.67392 1.66667 10 1.66667H21.6667C22.1087 1.66667 22.5326 1.84226 22.8452 2.15482L34.5118 13.8215C34.8244 14.134 35 14.558 35 15V33.3333C35 34.6594 34.4732 35.9312 33.5355 36.8689C32.5979 37.8065 31.3261 38.3333 30 38.3333H10C8.67392 38.3333 7.40215 37.8065 6.46447 36.8689C5.52678 35.9312 5 34.6594 5 33.3333V6.66667C5 5.34058 5.52678 4.06881 6.46447 3.13113ZM10 5C9.55797 5 9.13405 5.17559 8.82149 5.48815C8.50893 5.80072 8.33333 6.22464 8.33333 6.66667V33.3333C8.33333 33.7754 8.50893 34.1993 8.82149 34.5118C9.13405 34.8244 9.55797 35 10 35H30C30.442 35 30.8659 34.8244 31.1785 34.5118C31.4911 34.1993 31.6667 33.7754 31.6667 33.3333V15.6904L20.9763 5H10Z" fill="black"/>
<path fill-rule="evenodd" clip-rule="evenodd" d="M21.6667 1.66667C22.5871 1.66667 23.3333 2.41286 23.3333 3.33333V13.3333H33.3333C34.2538 13.3333 35 14.0795 35 15C35 15.9205 34.2538 16.6667 33.3333 16.6667H21.6667C20.7462 16.6667 20 15.9205 20 15V3.33333C20 2.41286 20.7462 1.66667 21.6667 1.66667Z" fill="black"/>
</svg>
