<svg width="40" height="40" viewBox="0 0 40 40" fill="none" xmlns="http://www.w3.org/2000/svg">
<path fill-rule="evenodd" clip-rule="evenodd" d="M6.66666 6.66667C6.22463 6.66667 5.8007 6.84226 5.48814 7.15482C5.17558 7.46739 4.99999 7.89131 4.99999 8.33334V31.6667C4.99999 32.1087 5.17558 32.5326 5.48814 32.8452C5.80071 33.1577 6.22463 33.3333 6.66666 33.3333H33.3333C33.7753 33.3333 34.1993 33.1577 34.5118 32.8452C34.8244 32.5326 35 32.1087 35 31.6667V13.3333C35 12.8913 34.8244 12.4674 34.5118 12.1548C34.1993 11.8423 33.7753 11.6667 33.3333 11.6667H18.3333C17.7761 11.6667 17.2557 11.3882 16.9466 10.9245L14.108 6.66667H6.66666ZM3.13112 4.7978C4.0688 3.86012 5.34057 3.33334 6.66666 3.33334H15C15.5572 3.33334 16.0776 3.61184 16.3867 4.0755L19.2253 8.33334H33.3333C34.6594 8.33334 35.9312 8.86012 36.8689 9.7978C37.8065 10.7355 38.3333 12.0073 38.3333 13.3333V31.6667C38.3333 32.9928 37.8065 34.2645 36.8689 35.2022C35.9312 36.1399 34.6594 36.6667 33.3333 36.6667H6.66666C5.34057 36.6667 4.0688 36.1399 3.13112 35.2022C2.19344 34.2645 1.66666 32.9928 1.66666 31.6667V8.33334C1.66666 7.00725 2.19344 5.73548 3.13112 4.7978Z" fill="black"/>
</svg>
