<svg width="40" height="40" viewBox="0 0 40 40" fill="none" xmlns="http://www.w3.org/2000/svg">
<path fill-rule="evenodd" clip-rule="evenodd" d="M21.2922 4.58452C23.1782 2.76294 25.7042 1.755 28.3262 1.77778C30.9481 1.80057 33.4563 2.85226 35.3103 4.70634C37.1644 6.56042 38.2161 9.06854 38.2389 11.6905C38.2617 14.3125 37.2537 16.8385 35.4322 18.7245L35.4118 18.7452L30.4121 23.745C29.3983 24.7591 28.1783 25.5434 26.8348 26.0445C25.4912 26.5457 24.0557 26.7521 22.6254 26.6496C21.1951 26.5472 19.8036 26.1384 18.5452 25.4508C17.2868 24.7633 16.191 23.8132 15.3321 22.665C14.7807 21.9279 14.9313 20.8834 15.6684 20.3321C16.4055 19.7807 17.4499 19.9313 18.0013 20.6684C18.5739 21.4339 19.3044 22.0673 20.1433 22.5256C20.9823 22.984 21.91 23.2565 22.8635 23.3248C23.817 23.3931 24.7741 23.2555 25.6697 22.9214C26.5654 22.5873 27.3788 22.0645 28.0546 21.3884L33.044 16.399C34.2524 15.1427 34.9208 13.4629 34.9057 11.7195C34.8905 9.9715 34.1894 8.29941 32.9533 7.06336C31.7173 5.82731 30.0452 5.12618 28.2972 5.11099C26.553 5.09583 24.8725 5.76484 23.6161 6.97423L20.7584 9.81528C20.1056 10.4643 19.0504 10.4612 18.4014 9.80841C17.7524 9.15564 17.7555 8.10037 18.4083 7.45139L21.2749 4.60139L21.2922 4.58452Z" fill="black"/>
<path fill-rule="evenodd" clip-rule="evenodd" d="M13.1653 13.9555C14.5088 13.4543 15.9444 13.2479 17.3746 13.3504C18.8049 13.4528 20.1965 13.8616 21.4548 14.5492C22.7132 15.2367 23.809 16.1868 24.6679 17.335C25.2193 18.0721 25.0687 19.1166 24.3316 19.6679C23.5946 20.2193 22.5501 20.0687 21.9987 19.3316C21.4261 18.5661 20.6956 17.9327 19.8567 17.4744C19.0177 17.016 18.0901 16.7435 17.1365 16.6752C16.183 16.6069 15.2259 16.7445 14.3303 17.0786C13.4346 17.4127 12.6212 17.9355 11.9454 18.6116L6.95599 23.601C5.7476 24.8573 5.07918 26.5371 5.09433 28.2805C5.10952 30.0285 5.81064 31.7006 7.0467 32.9366C8.28275 34.1727 9.95483 34.8738 11.7028 34.889C13.4462 34.9042 15.126 34.2358 16.3823 33.0274L19.2215 30.1882C19.8724 29.5373 20.9276 29.5373 21.5785 30.1882C22.2294 30.839 22.2294 31.8943 21.5785 32.5452L18.7285 35.3952L18.7079 35.4155C16.8218 37.2371 14.2958 38.245 11.6738 38.2222C9.05188 38.1994 6.54376 37.1478 4.68967 35.2937C2.83559 33.4396 1.7839 30.9315 1.76112 28.3095C1.73834 25.6875 2.74628 23.1615 4.56786 21.2755L4.58816 21.2548L9.58795 16.255C9.58788 16.2551 9.58802 16.255 9.58795 16.255C10.6017 15.241 11.8218 14.4566 13.1653 13.9555Z" fill="black"/>
</svg>
