<svg width="129" height="50" viewBox="0 0 129 50" fill="none" xmlns="http://www.w3.org/2000/svg">
<rect width="122.835" height="50" rx="10" fill="#5A189A"/>
<path d="M25.976 32C24.7627 32 24.156 31.384 24.156 30.152V13.996C24.156 12.7827 24.7533 12.176 25.948 12.176C27.1427 12.176 27.74 12.7827 27.74 13.996V28.948H35.86C36.9053 28.948 37.428 29.452 37.428 30.46C37.428 31.4867 36.9053 32 35.86 32H25.976ZM45.6499 32.28C44.2313 32.28 42.9993 31.9907 41.9539 31.412C40.9086 30.8333 40.0966 30.012 39.5179 28.948C38.9393 27.8653 38.6499 26.596 38.6499 25.14C38.6499 23.684 38.9393 22.424 39.5179 21.36C40.0966 20.296 40.9086 19.4747 41.9539 18.896C42.9993 18.3173 44.2313 18.028 45.6499 18.028C47.0686 18.028 48.3006 18.3173 49.3459 18.896C50.3913 19.4747 51.2033 20.296 51.7819 21.36C52.3606 22.424 52.6499 23.684 52.6499 25.14C52.6499 26.596 52.3606 27.8653 51.7819 28.948C51.2033 30.012 50.3913 30.8333 49.3459 31.412C48.3006 31.9907 47.0686 32.28 45.6499 32.28ZM45.6499 29.62C46.6953 29.62 47.5353 29.2467 48.1699 28.5C48.8046 27.7347 49.1219 26.6147 49.1219 25.14C49.1219 23.6467 48.8046 22.536 48.1699 21.808C47.5353 21.0613 46.6953 20.688 45.6499 20.688C44.6046 20.688 43.7646 21.0613 43.1299 21.808C42.4953 22.536 42.1779 23.6467 42.1779 25.14C42.1779 26.6147 42.4953 27.7347 43.1299 28.5C43.7646 29.2467 44.6046 29.62 45.6499 29.62ZM61.9228 37.32C60.9148 37.32 59.9348 37.2267 58.9828 37.04C58.0494 36.8533 57.2001 36.564 56.4348 36.172C55.9868 35.948 55.7161 35.6587 55.6228 35.304C55.5481 34.968 55.5854 34.6413 55.7348 34.324C55.8841 34.0067 56.1081 33.7733 56.4068 33.624C56.7241 33.4933 57.0601 33.512 57.4147 33.68C58.2361 34.0907 59.0108 34.352 59.7388 34.464C60.4854 34.5947 61.1201 34.66 61.6428 34.66C64.1441 34.66 65.3948 33.456 65.3948 31.048V29.172C65.0028 29.9373 64.3961 30.544 63.5748 30.992C62.7721 31.44 61.8761 31.664 60.8868 31.664C59.6548 31.664 58.5814 31.384 57.6668 30.824C56.7521 30.2453 56.0428 29.4427 55.5388 28.416C55.0348 27.3893 54.7828 26.1947 54.7828 24.832C54.7828 23.4693 55.0348 22.284 55.5388 21.276C56.0428 20.2493 56.7521 19.456 57.6668 18.896C58.5814 18.3173 59.6548 18.028 60.8868 18.028C61.8761 18.028 62.7721 18.2427 63.5748 18.672C64.3774 19.1013 64.9654 19.6893 65.3388 20.436V19.848C65.3388 19.2693 65.4881 18.8307 65.7868 18.532C66.1041 18.2333 66.5334 18.084 67.0748 18.084C68.2321 18.084 68.8108 18.672 68.8108 19.848V30.628C68.8108 32.8493 68.2228 34.52 67.0468 35.64C65.8708 36.76 64.1628 37.32 61.9228 37.32ZM61.8388 29.004C62.9214 29.004 63.7801 28.6307 64.4148 27.884C65.0494 27.1373 65.3668 26.12 65.3668 24.832C65.3668 23.544 65.0494 22.536 64.4148 21.808C63.7801 21.0613 62.9214 20.688 61.8388 20.688C60.7561 20.688 59.8974 21.0613 59.2628 21.808C58.6281 22.536 58.3108 23.544 58.3108 24.832C58.3108 26.12 58.6281 27.1373 59.2628 27.884C59.8974 28.6307 60.7561 29.004 61.8388 29.004ZM82.1668 32.224C80.9721 32.224 80.3748 31.608 80.3748 30.376V13.884C80.3748 12.652 80.9721 12.036 82.1668 12.036C83.3614 12.036 83.9588 12.652 83.9588 13.884V30.376C83.9588 31.608 83.3614 32.224 82.1668 32.224ZM89.6771 32.224C88.5198 32.224 87.9411 31.6267 87.9411 30.432V19.848C87.9411 18.672 88.5104 18.084 89.6491 18.084C90.7878 18.084 91.3571 18.672 91.3571 19.848V20.436C91.8238 19.652 92.4491 19.0547 93.2331 18.644C94.0358 18.2333 94.9318 18.028 95.9211 18.028C99.1504 18.028 100.765 19.904 100.765 23.656V30.432C100.765 31.6267 100.186 32.224 99.0291 32.224C97.8531 32.224 97.2651 31.6267 97.2651 30.432V23.824C97.2651 22.76 97.0598 21.9853 96.6491 21.5C96.2571 21.0147 95.6411 20.772 94.8011 20.772C93.7744 20.772 92.9531 21.0987 92.3371 21.752C91.7398 22.3867 91.4411 23.236 91.4411 24.3V30.432C91.4411 31.6267 90.8531 32.224 89.6771 32.224Z" fill="white"/>
</svg>
