<svg width="40" height="40" viewBox="0 0 40 40" fill="none" xmlns="http://www.w3.org/2000/svg">
<path fill-rule="evenodd" clip-rule="evenodd" d="M6.66669 8.33333C5.75383 8.33333 5.00002 9.08714 5.00002 10V30C5.00002 30.9129 5.75383 31.6667 6.66669 31.6667H33.3334C34.2462 31.6667 35 30.9129 35 30V10C35 9.08714 34.2462 8.33333 33.3334 8.33333H6.66669ZM1.66669 10C1.66669 7.24619 3.91288 5 6.66669 5H33.3334C36.0872 5 38.3334 7.24619 38.3334 10V30C38.3334 32.7538 36.0872 35 33.3334 35H6.66669C3.91288 35 1.66669 32.7538 1.66669 30V10Z" fill="black"/>
<path fill-rule="evenodd" clip-rule="evenodd" d="M1.96793 9.04423C2.49578 8.29015 3.535 8.10676 4.28908 8.63461L20 19.6322L35.7109 8.63461C36.465 8.10676 37.5042 8.29015 38.032 9.04423C38.5599 9.79831 38.3765 10.8375 37.6224 11.3654L20.9558 23.0321C20.3819 23.4338 19.6181 23.4338 19.0442 23.0321L2.37754 11.3654C1.62346 10.8375 1.44007 9.79831 1.96793 9.04423Z" fill="black"/>
</svg>
