<svg width="47" height="47" viewBox="0 0 47 47" fill="none" xmlns="http://www.w3.org/2000/svg">
<path fill-rule="evenodd" clip-rule="evenodd" d="M18.6041 4.4375C26.4282 4.4375 32.7708 10.7801 32.7708 18.6042C32.7708 22.5166 31.1868 26.0562 28.6215 28.6215C26.0562 31.1868 22.5166 32.7708 18.6041 32.7708C10.7801 32.7708 4.43747 26.4282 4.43747 18.6042C4.43747 10.7801 10.7801 4.4375 18.6041 4.4375ZM35.7708 18.6042C35.7708 9.12328 28.085 1.4375 18.6041 1.4375C9.12325 1.4375 1.43747 9.12328 1.43747 18.6042C1.43747 28.0851 9.12325 35.7708 18.6041 35.7708C22.8039 35.7708 26.6534 34.2611 29.636 31.7573L32.1495 34.2708L31.6599 34.7604L32.7206 35.8211L40.5539 43.6544L41.6146 44.7151L42.6752 43.6544L43.6544 42.6752L44.715 41.6146L43.6544 40.5539L35.821 32.7206L34.7604 31.6599L34.2708 32.1495L31.7573 29.636C34.2611 26.6534 35.7708 22.804 35.7708 18.6042Z" fill="#5A189A"/>
</svg>
