<svg width="330" height="50" viewBox="0 0 330 50" fill="none" xmlns="http://www.w3.org/2000/svg">
<rect width="330" height="50" rx="20" fill="#DEE2E6"/>
<path fill-rule="evenodd" clip-rule="evenodd" d="M289.604 7.4375C297.428 7.4375 303.771 13.7801 303.771 21.6042C303.771 25.5166 302.187 29.0562 299.621 31.6215C297.056 34.1868 293.517 35.7708 289.604 35.7708C281.78 35.7708 275.437 29.4282 275.437 21.6042C275.437 13.7801 281.78 7.4375 289.604 7.4375ZM306.771 21.6042C306.771 12.1233 299.085 4.4375 289.604 4.4375C280.123 4.4375 272.437 12.1233 272.437 21.6042C272.437 31.0851 280.123 38.7708 289.604 38.7708C293.804 38.7708 297.653 37.2611 300.636 34.7573L303.149 37.2708L302.66 37.7604L303.721 38.8211L311.554 46.6544L312.615 47.7151L313.675 46.6544L314.654 45.6752L315.715 44.6146L314.654 43.5539L306.821 35.7206L305.76 34.6599L305.271 35.1495L302.757 32.636C305.261 29.6534 306.771 25.804 306.771 21.6042Z" fill="#5A189A"/>
<path d="M15.62 32.14C15.0333 32.14 14.74 31.84 14.74 31.24V18.8C14.74 18.2 15.04 17.9 15.64 17.9H22.9C23.3667 17.9 23.6 18.1267 23.6 18.58C23.6 19.0467 23.3667 19.28 22.9 19.28H16.38V24.2H22.48C22.96 24.2 23.2 24.4267 23.2 24.88C23.2 25.3467 22.96 25.58 22.48 25.58H16.38V31.24C16.38 31.84 16.1267 32.14 15.62 32.14ZM26.6481 19.94C25.9415 19.94 25.5881 19.6067 25.5881 18.94C25.5881 18.2867 25.9415 17.96 26.6481 17.96C27.3548 17.96 27.7081 18.2867 27.7081 18.94C27.7081 19.6067 27.3548 19.94 26.6481 19.94ZM26.6481 32.1C26.1148 32.1 25.8481 31.8067 25.8481 31.22V23.04C25.8481 22.4667 26.1148 22.18 26.6481 22.18C27.1948 22.18 27.4681 22.4667 27.4681 23.04V31.22C27.4681 31.8067 27.1948 32.1 26.6481 32.1ZM31.2966 32.14C30.7632 32.14 30.4966 31.86 30.4966 31.3V22.96C30.4966 22.4133 30.7566 22.14 31.2766 22.14C31.8099 22.14 32.0766 22.4133 32.0766 22.96V23.94C32.3966 23.3267 32.8499 22.8667 33.4366 22.56C34.0232 22.2533 34.6832 22.1 35.4166 22.1C37.7232 22.1 38.8766 23.38 38.8766 25.94V31.3C38.8766 31.86 38.6099 32.14 38.0766 32.14C37.5299 32.14 37.2566 31.86 37.2566 31.3V26.04C37.2566 25.1333 37.0766 24.4733 36.7166 24.06C36.3699 23.6333 35.8099 23.42 35.0366 23.42C34.1432 23.42 33.4299 23.7 32.8966 24.26C32.3766 24.8067 32.1166 25.54 32.1166 26.46V31.3C32.1166 31.86 31.8432 32.14 31.2966 32.14ZM45.5638 32.18C44.6971 32.18 43.9371 31.9733 43.2837 31.56C42.6438 31.1467 42.1438 30.5667 41.7838 29.82C41.4371 29.06 41.2638 28.1667 41.2638 27.14C41.2638 26.1 41.4371 25.2067 41.7838 24.46C42.1438 23.7 42.6438 23.12 43.2837 22.72C43.9371 22.3067 44.6971 22.1 45.5638 22.1C46.3238 22.1 46.9904 22.2667 47.5638 22.6C48.1504 22.9333 48.5838 23.3933 48.8638 23.98V18.58C48.8638 18.0333 49.1371 17.76 49.6838 17.76C50.2171 17.76 50.4838 18.0333 50.4838 18.58V31.3C50.4838 31.86 50.2171 32.14 49.6838 32.14C49.1504 32.14 48.8838 31.86 48.8838 31.3V30.26C48.5904 30.86 48.1504 31.3333 47.5638 31.68C46.9904 32.0133 46.3238 32.18 45.5638 32.18ZM45.9038 30.88C46.8104 30.88 47.5371 30.56 48.0838 29.92C48.6304 29.2667 48.9038 28.34 48.9038 27.14C48.9038 25.9267 48.6304 25 48.0838 24.36C47.5371 23.72 46.8104 23.4 45.9038 23.4C44.9838 23.4 44.2504 23.72 43.7038 24.36C43.1704 25 42.9038 25.9267 42.9038 27.14C42.9038 28.34 43.1704 29.2667 43.7038 29.92C44.2504 30.56 44.9838 30.88 45.9038 30.88ZM61.7402 32.18C61.0735 32.18 60.4735 32.0533 59.9402 31.8C59.4202 31.5333 59.0068 31.1733 58.7002 30.72C58.3935 30.2667 58.2402 29.76 58.2402 29.2C58.2402 28.4933 58.4202 27.9333 58.7802 27.52C59.1535 27.1067 59.7602 26.8133 60.6002 26.64C61.4535 26.4533 62.6135 26.36 64.0802 26.36H64.7202V25.74C64.7202 24.9133 64.5468 24.32 64.2002 23.96C63.8668 23.5867 63.3268 23.4 62.5802 23.4C62.1135 23.4 61.6402 23.46 61.1602 23.58C60.6935 23.7 60.2068 23.8933 59.7002 24.16C59.4735 24.28 59.2802 24.3067 59.1202 24.24C58.9735 24.16 58.8668 24.04 58.8002 23.88C58.7468 23.7067 58.7468 23.5333 58.8002 23.36C58.8668 23.1733 59.0002 23.0333 59.2002 22.94C59.7735 22.6467 60.3468 22.4333 60.9202 22.3C61.5068 22.1667 62.0602 22.1 62.5802 22.1C63.8335 22.1 64.7602 22.4067 65.3602 23.02C65.9735 23.6333 66.2802 24.5867 66.2802 25.88V31.3C66.2802 31.86 66.0335 32.14 65.5402 32.14C65.0202 32.14 64.7602 31.86 64.7602 31.3V30.32C64.5068 30.8933 64.1135 31.3467 63.5802 31.68C63.0602 32.0133 62.4468 32.18 61.7402 32.18ZM62.0002 30.96C62.8002 30.96 63.4535 30.6867 63.9602 30.14C64.4668 29.58 64.7202 28.8733 64.7202 28.02V27.42H64.1002C63.0202 27.42 62.1668 27.4733 61.5402 27.58C60.9268 27.6733 60.4935 27.8467 60.2402 28.1C60.0002 28.34 59.8802 28.6733 59.8802 29.1C59.8802 29.6467 60.0668 30.0933 60.4402 30.44C60.8268 30.7867 61.3468 30.96 62.0002 30.96ZM78.5619 32.18C77.5885 32.18 76.7485 31.9733 76.0419 31.56C75.3352 31.1333 74.7885 30.54 74.4019 29.78C74.0285 29.0067 73.8419 28.1067 73.8419 27.08C73.8419 25.5333 74.2619 24.32 75.1019 23.44C75.9419 22.5467 77.0952 22.1 78.5619 22.1C79.0419 22.1 79.5419 22.18 80.0619 22.34C80.5819 22.4867 81.0552 22.7333 81.4819 23.08C81.7085 23.24 81.8019 23.44 81.7619 23.68C81.7352 23.92 81.6219 24.1 81.4219 24.22C81.2352 24.34 81.0152 24.3133 80.7619 24.14C80.4019 23.8733 80.0419 23.6867 79.6819 23.58C79.3352 23.4733 78.9952 23.42 78.6619 23.42C77.6485 23.42 76.8685 23.74 76.3219 24.38C75.7752 25.0067 75.5019 25.9133 75.5019 27.1C75.5019 28.26 75.7752 29.18 76.3219 29.86C76.8685 30.5267 77.6485 30.86 78.6619 30.86C78.9952 30.86 79.3352 30.8067 79.6819 30.7C80.0419 30.5933 80.4019 30.4067 80.7619 30.14C81.0152 29.9667 81.2352 29.9467 81.4219 30.08C81.6085 30.2 81.7085 30.38 81.7219 30.62C81.7485 30.86 81.6552 31.0533 81.4419 31.2C81.0152 31.5467 80.5485 31.8 80.0419 31.96C79.5352 32.1067 79.0419 32.18 78.5619 32.18ZM87.5444 32.18C86.5977 32.18 85.7777 31.9733 85.0844 31.56C84.391 31.1467 83.851 30.5667 83.4644 29.82C83.091 29.06 82.9044 28.1667 82.9044 27.14C82.9044 26.1133 83.091 25.2267 83.4644 24.48C83.851 23.72 84.391 23.1333 85.0844 22.72C85.7777 22.3067 86.5977 22.1 87.5444 22.1C88.4777 22.1 89.291 22.3067 89.9844 22.72C90.691 23.1333 91.231 23.72 91.6044 24.48C91.991 25.2267 92.1844 26.1133 92.1844 27.14C92.1844 28.1667 91.991 29.06 91.6044 29.82C91.231 30.5667 90.691 31.1467 89.9844 31.56C89.291 31.9733 88.4777 32.18 87.5444 32.18ZM87.5444 30.88C88.451 30.88 89.1777 30.56 89.7244 29.92C90.271 29.2667 90.5444 28.34 90.5444 27.14C90.5444 25.9267 90.271 25 89.7244 24.36C89.1777 23.72 88.451 23.4 87.5444 23.4C86.6244 23.4 85.891 23.72 85.3444 24.36C84.811 25 84.5444 25.9267 84.5444 27.14C84.5444 28.34 84.811 29.2667 85.3444 29.92C85.891 30.56 86.6244 30.88 87.5444 30.88ZM98.0577 32.18C95.7243 32.18 94.5577 30.8933 94.5577 28.32V22.96C94.5577 22.4133 94.8243 22.14 95.3577 22.14C95.9043 22.14 96.1777 22.4133 96.1777 22.96V28.3C96.1777 29.1667 96.351 29.8067 96.6977 30.22C97.0577 30.6333 97.6177 30.84 98.3777 30.84C99.2043 30.84 99.8777 30.5667 100.398 30.02C100.918 29.46 101.178 28.72 101.178 27.8V22.96C101.178 22.4133 101.451 22.14 101.998 22.14C102.531 22.14 102.798 22.4133 102.798 22.96V31.3C102.798 31.86 102.538 32.14 102.018 32.14C101.484 32.14 101.218 31.86 101.218 31.3V30.36C100.911 30.9467 100.478 31.4 99.9177 31.72C99.371 32.0267 98.751 32.18 98.0577 32.18ZM106.649 32.14C106.102 32.14 105.829 31.86 105.829 31.3V22.96C105.829 22.4133 106.089 22.14 106.609 22.14C107.142 22.14 107.409 22.4133 107.409 22.96V24.02C107.675 23.4067 108.089 22.94 108.649 22.62C109.209 22.2867 109.875 22.1067 110.649 22.08C111.075 22.04 111.302 22.2533 111.329 22.72C111.369 23.1867 111.129 23.4467 110.609 23.5L110.289 23.54C109.369 23.62 108.669 23.9133 108.189 24.42C107.709 24.9133 107.469 25.5933 107.469 26.46V31.3C107.469 31.86 107.195 32.14 106.649 32.14ZM116.179 32.18C115.579 32.18 114.972 32.1067 114.359 31.96C113.759 31.8 113.199 31.5467 112.679 31.2C112.439 31.0533 112.319 30.8667 112.319 30.64C112.332 30.4 112.426 30.2133 112.599 30.08C112.772 29.9467 112.992 29.9467 113.259 30.08C113.779 30.4 114.279 30.6267 114.759 30.76C115.252 30.88 115.739 30.94 116.219 30.94C116.979 30.94 117.552 30.8 117.939 30.52C118.326 30.24 118.519 29.86 118.519 29.38C118.519 29.0067 118.392 28.7133 118.139 28.5C117.886 28.2733 117.486 28.1 116.939 27.98L115.119 27.58C113.466 27.22 112.639 26.3667 112.639 25.02C112.639 24.14 112.986 23.4333 113.679 22.9C114.386 22.3667 115.306 22.1 116.439 22.1C117.012 22.1 117.566 22.18 118.099 22.34C118.632 22.4867 119.112 22.7267 119.539 23.06C119.766 23.22 119.866 23.4133 119.839 23.64C119.812 23.8667 119.706 24.0467 119.519 24.18C119.346 24.3 119.132 24.28 118.879 24.12C118.479 23.8533 118.072 23.66 117.659 23.54C117.246 23.4067 116.839 23.34 116.439 23.34C115.692 23.34 115.126 23.4867 114.739 23.78C114.352 24.0733 114.159 24.46 114.159 24.94C114.159 25.6867 114.652 26.1667 115.639 26.38L117.459 26.76C118.312 26.9467 118.959 27.2467 119.399 27.66C119.839 28.06 120.059 28.6067 120.059 29.3C120.059 30.1933 119.706 30.9 118.999 31.42C118.292 31.9267 117.352 32.18 116.179 32.18ZM126.908 32.18C125.374 32.18 124.161 31.7333 123.268 30.84C122.374 29.9333 121.928 28.7067 121.928 27.16C121.928 26.16 122.128 25.28 122.528 24.52C122.928 23.7467 123.474 23.1533 124.168 22.74C124.874 22.3133 125.688 22.1 126.608 22.1C127.928 22.1 128.961 22.5267 129.708 23.38C130.454 24.22 130.828 25.38 130.828 26.86C130.828 27.2733 130.594 27.48 130.128 27.48H123.508C123.561 28.5867 123.881 29.4333 124.468 30.02C125.054 30.5933 125.868 30.88 126.908 30.88C127.348 30.88 127.794 30.8267 128.248 30.72C128.701 30.6 129.141 30.3933 129.568 30.1C129.874 29.9 130.128 29.86 130.328 29.98C130.541 30.1 130.648 30.2867 130.648 30.54C130.661 30.78 130.528 30.9933 130.248 31.18C129.808 31.5 129.281 31.7467 128.668 31.92C128.068 32.0933 127.481 32.18 126.908 32.18ZM126.648 23.3C125.728 23.3 125.001 23.5867 124.468 24.16C123.934 24.7333 123.621 25.4867 123.528 26.42H129.428C129.388 25.4333 129.128 24.6667 128.648 24.12C128.181 23.5733 127.514 23.3 126.648 23.3ZM134.132 33.9C133.946 34.1267 133.759 34.2267 133.572 34.2C133.386 34.1867 133.259 34.0933 133.192 33.92C133.126 33.7467 133.179 33.54 133.352 33.3C133.512 33.1 133.632 32.8933 133.712 32.68C133.792 32.4667 133.852 32.2667 133.892 32.08C133.572 32.0533 133.319 31.94 133.132 31.74C132.946 31.54 132.852 31.2867 132.852 30.98C132.852 30.66 132.946 30.4 133.132 30.2C133.332 29.9867 133.592 29.88 133.912 29.88C134.259 29.88 134.532 30 134.732 30.24C134.932 30.4667 135.032 30.8 135.032 31.24C135.032 31.6533 134.966 32.0933 134.832 32.56C134.699 33.0267 134.466 33.4733 134.132 33.9ZM143.699 32.14C143.153 32.14 142.879 31.86 142.879 31.3V22.96C142.879 22.4133 143.139 22.14 143.659 22.14C144.193 22.14 144.459 22.4133 144.459 22.96V24.02C144.726 23.4067 145.139 22.94 145.699 22.62C146.259 22.2867 146.926 22.1067 147.699 22.08C148.126 22.04 148.353 22.2533 148.379 22.72C148.419 23.1867 148.179 23.4467 147.659 23.5L147.339 23.54C146.419 23.62 145.719 23.9133 145.239 24.42C144.759 24.9133 144.519 25.5933 144.519 26.46V31.3C144.519 31.86 144.246 32.14 143.699 32.14ZM154.31 32.18C152.777 32.18 151.563 31.7333 150.67 30.84C149.777 29.9333 149.33 28.7067 149.33 27.16C149.33 26.16 149.53 25.28 149.93 24.52C150.33 23.7467 150.877 23.1533 151.57 22.74C152.277 22.3133 153.09 22.1 154.01 22.1C155.33 22.1 156.363 22.5267 157.11 23.38C157.857 24.22 158.23 25.38 158.23 26.86C158.23 27.2733 157.997 27.48 157.53 27.48H150.91C150.963 28.5867 151.283 29.4333 151.87 30.02C152.457 30.5933 153.27 30.88 154.31 30.88C154.75 30.88 155.197 30.8267 155.65 30.72C156.103 30.6 156.543 30.3933 156.97 30.1C157.277 29.9 157.53 29.86 157.73 29.98C157.943 30.1 158.05 30.2867 158.05 30.54C158.063 30.78 157.93 30.9933 157.65 31.18C157.21 31.5 156.683 31.7467 156.07 31.92C155.47 32.0933 154.883 32.18 154.31 32.18ZM154.05 23.3C153.13 23.3 152.403 23.5867 151.87 24.16C151.337 24.7333 151.023 25.4867 150.93 26.42H156.83C156.79 25.4333 156.53 24.6667 156.05 24.12C155.583 23.5733 154.917 23.3 154.05 23.3ZM163.855 32.18C163.255 32.18 162.648 32.1067 162.035 31.96C161.435 31.8 160.875 31.5467 160.355 31.2C160.115 31.0533 159.995 30.8667 159.995 30.64C160.008 30.4 160.101 30.2133 160.275 30.08C160.448 29.9467 160.668 29.9467 160.935 30.08C161.455 30.4 161.955 30.6267 162.435 30.76C162.928 30.88 163.415 30.94 163.895 30.94C164.655 30.94 165.228 30.8 165.615 30.52C166.001 30.24 166.195 29.86 166.195 29.38C166.195 29.0067 166.068 28.7133 165.815 28.5C165.561 28.2733 165.161 28.1 164.615 27.98L162.795 27.58C161.141 27.22 160.315 26.3667 160.315 25.02C160.315 24.14 160.661 23.4333 161.355 22.9C162.061 22.3667 162.981 22.1 164.115 22.1C164.688 22.1 165.241 22.18 165.775 22.34C166.308 22.4867 166.788 22.7267 167.215 23.06C167.441 23.22 167.541 23.4133 167.515 23.64C167.488 23.8667 167.381 24.0467 167.195 24.18C167.021 24.3 166.808 24.28 166.555 24.12C166.155 23.8533 165.748 23.66 165.335 23.54C164.921 23.4067 164.515 23.34 164.115 23.34C163.368 23.34 162.801 23.4867 162.415 23.78C162.028 24.0733 161.835 24.46 161.835 24.94C161.835 25.6867 162.328 26.1667 163.315 26.38L165.135 26.76C165.988 26.9467 166.635 27.2467 167.075 27.66C167.515 28.06 167.735 28.6067 167.735 29.3C167.735 30.1933 167.381 30.9 166.675 31.42C165.968 31.9267 165.028 32.18 163.855 32.18ZM174.244 32.18C173.297 32.18 172.477 31.9733 171.784 31.56C171.09 31.1467 170.55 30.5667 170.164 29.82C169.79 29.06 169.604 28.1667 169.604 27.14C169.604 26.1133 169.79 25.2267 170.164 24.48C170.55 23.72 171.09 23.1333 171.784 22.72C172.477 22.3067 173.297 22.1 174.244 22.1C175.177 22.1 175.99 22.3067 176.684 22.72C177.39 23.1333 177.93 23.72 178.304 24.48C178.69 25.2267 178.884 26.1133 178.884 27.14C178.884 28.1667 178.69 29.06 178.304 29.82C177.93 30.5667 177.39 31.1467 176.684 31.56C175.99 31.9733 175.177 32.18 174.244 32.18ZM174.244 30.88C175.15 30.88 175.877 30.56 176.424 29.92C176.97 29.2667 177.244 28.34 177.244 27.14C177.244 25.9267 176.97 25 176.424 24.36C175.877 23.72 175.15 23.4 174.244 23.4C173.324 23.4 172.59 23.72 172.044 24.36C171.51 25 171.244 25.9267 171.244 27.14C171.244 28.34 171.51 29.2667 172.044 29.92C172.59 30.56 173.324 30.88 174.244 30.88ZM184.757 32.18C182.424 32.18 181.257 30.8933 181.257 28.32V22.96C181.257 22.4133 181.524 22.14 182.057 22.14C182.604 22.14 182.877 22.4133 182.877 22.96V28.3C182.877 29.1667 183.05 29.8067 183.397 30.22C183.757 30.6333 184.317 30.84 185.077 30.84C185.904 30.84 186.577 30.5667 187.097 30.02C187.617 29.46 187.877 28.72 187.877 27.8V22.96C187.877 22.4133 188.15 22.14 188.697 22.14C189.23 22.14 189.497 22.4133 189.497 22.96V31.3C189.497 31.86 189.237 32.14 188.717 32.14C188.184 32.14 187.917 31.86 187.917 31.3V30.36C187.61 30.9467 187.177 31.4 186.617 31.72C186.07 32.0267 185.45 32.18 184.757 32.18ZM193.348 32.14C192.801 32.14 192.528 31.86 192.528 31.3V22.96C192.528 22.4133 192.788 22.14 193.308 22.14C193.841 22.14 194.108 22.4133 194.108 22.96V24.02C194.374 23.4067 194.788 22.94 195.348 22.62C195.908 22.2867 196.574 22.1067 197.348 22.08C197.774 22.04 198.001 22.2533 198.028 22.72C198.068 23.1867 197.828 23.4467 197.308 23.5L196.988 23.54C196.068 23.62 195.368 23.9133 194.888 24.42C194.408 24.9133 194.168 25.5933 194.168 26.46V31.3C194.168 31.86 193.894 32.14 193.348 32.14ZM203.699 32.18C202.725 32.18 201.885 31.9733 201.179 31.56C200.472 31.1333 199.925 30.54 199.539 29.78C199.165 29.0067 198.979 28.1067 198.979 27.08C198.979 25.5333 199.399 24.32 200.239 23.44C201.079 22.5467 202.232 22.1 203.699 22.1C204.179 22.1 204.679 22.18 205.199 22.34C205.719 22.4867 206.192 22.7333 206.619 23.08C206.845 23.24 206.939 23.44 206.899 23.68C206.872 23.92 206.759 24.1 206.559 24.22C206.372 24.34 206.152 24.3133 205.899 24.14C205.539 23.8733 205.179 23.6867 204.819 23.58C204.472 23.4733 204.132 23.42 203.799 23.42C202.785 23.42 202.005 23.74 201.459 24.38C200.912 25.0067 200.639 25.9133 200.639 27.1C200.639 28.26 200.912 29.18 201.459 29.86C202.005 30.5267 202.785 30.86 203.799 30.86C204.132 30.86 204.472 30.8067 204.819 30.7C205.179 30.5933 205.539 30.4067 205.899 30.14C206.152 29.9667 206.372 29.9467 206.559 30.08C206.745 30.2 206.845 30.38 206.859 30.62C206.885 30.86 206.792 31.0533 206.579 31.2C206.152 31.5467 205.685 31.8 205.179 31.96C204.672 32.1067 204.179 32.18 203.699 32.18ZM213.021 32.18C211.488 32.18 210.274 31.7333 209.381 30.84C208.488 29.9333 208.041 28.7067 208.041 27.16C208.041 26.16 208.241 25.28 208.641 24.52C209.041 23.7467 209.588 23.1533 210.281 22.74C210.988 22.3133 211.801 22.1 212.721 22.1C214.041 22.1 215.074 22.5267 215.821 23.38C216.568 24.22 216.941 25.38 216.941 26.86C216.941 27.2733 216.708 27.48 216.241 27.48H209.621C209.674 28.5867 209.994 29.4333 210.581 30.02C211.168 30.5933 211.981 30.88 213.021 30.88C213.461 30.88 213.908 30.8267 214.361 30.72C214.814 30.6 215.254 30.3933 215.681 30.1C215.988 29.9 216.241 29.86 216.441 29.98C216.654 30.1 216.761 30.2867 216.761 30.54C216.774 30.78 216.641 30.9933 216.361 31.18C215.921 31.5 215.394 31.7467 214.781 31.92C214.181 32.0933 213.594 32.18 213.021 32.18ZM212.761 23.3C211.841 23.3 211.114 23.5867 210.581 24.16C210.048 24.7333 209.734 25.4867 209.641 26.42H215.541C215.501 25.4333 215.241 24.6667 214.761 24.12C214.294 23.5733 213.628 23.3 212.761 23.3ZM220.246 33.9C220.059 34.1267 219.872 34.2267 219.686 34.2C219.499 34.1867 219.372 34.0933 219.306 33.92C219.239 33.7467 219.292 33.54 219.466 33.3C219.626 33.1 219.746 32.8933 219.826 32.68C219.906 32.4667 219.966 32.2667 220.006 32.08C219.686 32.0533 219.432 31.94 219.246 31.74C219.059 31.54 218.966 31.2867 218.966 30.98C218.966 30.66 219.059 30.4 219.246 30.2C219.446 29.9867 219.706 29.88 220.026 29.88C220.372 29.88 220.646 30 220.846 30.24C221.046 30.4667 221.146 30.8 221.146 31.24C221.146 31.6533 221.079 32.0933 220.946 32.56C220.812 33.0267 220.579 33.4733 220.246 33.9ZM233.373 32.18C231.839 32.18 230.626 31.7333 229.733 30.84C228.839 29.9333 228.393 28.7067 228.393 27.16C228.393 26.16 228.593 25.28 228.993 24.52C229.393 23.7467 229.939 23.1533 230.633 22.74C231.339 22.3133 232.153 22.1 233.073 22.1C234.393 22.1 235.426 22.5267 236.173 23.38C236.919 24.22 237.293 25.38 237.293 26.86C237.293 27.2733 237.059 27.48 236.593 27.48H229.973C230.026 28.5867 230.346 29.4333 230.933 30.02C231.519 30.5933 232.333 30.88 233.373 30.88C233.813 30.88 234.259 30.8267 234.713 30.72C235.166 30.6 235.606 30.3933 236.033 30.1C236.339 29.9 236.593 29.86 236.793 29.98C237.006 30.1 237.113 30.2867 237.113 30.54C237.126 30.78 236.993 30.9933 236.713 31.18C236.273 31.5 235.746 31.7467 235.133 31.92C234.533 32.0933 233.946 32.18 233.373 32.18ZM233.113 23.3C232.193 23.3 231.466 23.5867 230.933 24.16C230.399 24.7333 230.086 25.4867 229.993 26.42H235.893C235.853 25.4333 235.593 24.6667 235.113 24.12C234.646 23.5733 233.979 23.3 233.113 23.3ZM243.537 32.18C242.391 32.18 241.531 31.88 240.957 31.28C240.384 30.6667 240.097 29.7867 240.097 28.64V23.54H238.757C238.291 23.54 238.057 23.3267 238.057 22.9C238.057 22.4867 238.291 22.28 238.757 22.28H240.097V19.98C240.097 19.4333 240.371 19.16 240.917 19.16C241.451 19.16 241.717 19.4333 241.717 19.98V22.28H244.237C244.704 22.28 244.937 22.4867 244.937 22.9C244.937 23.3267 244.704 23.54 244.237 23.54H241.717V28.48C241.717 29.24 241.877 29.82 242.197 30.22C242.517 30.6067 243.037 30.8 243.757 30.8C244.011 30.8 244.224 30.7733 244.397 30.72C244.571 30.6667 244.724 30.64 244.857 30.64C244.977 30.6267 245.077 30.6667 245.157 30.76C245.237 30.8533 245.277 31.0133 245.277 31.24C245.277 31.4 245.244 31.5467 245.177 31.68C245.124 31.8133 245.024 31.9067 244.877 31.96C244.717 32.0133 244.504 32.06 244.237 32.1C243.984 32.1533 243.751 32.18 243.537 32.18ZM250.652 32.18C249.678 32.18 248.838 31.9733 248.132 31.56C247.425 31.1333 246.878 30.54 246.492 29.78C246.118 29.0067 245.932 28.1067 245.932 27.08C245.932 25.5333 246.352 24.32 247.192 23.44C248.032 22.5467 249.185 22.1 250.652 22.1C251.132 22.1 251.632 22.18 252.152 22.34C252.672 22.4867 253.145 22.7333 253.572 23.08C253.798 23.24 253.892 23.44 253.852 23.68C253.825 23.92 253.712 24.1 253.512 24.22C253.325 24.34 253.105 24.3133 252.852 24.14C252.492 23.8733 252.132 23.6867 251.772 23.58C251.425 23.4733 251.085 23.42 250.752 23.42C249.738 23.42 248.958 23.74 248.412 24.38C247.865 25.0067 247.592 25.9133 247.592 27.1C247.592 28.26 247.865 29.18 248.412 29.86C248.958 30.5267 249.738 30.86 250.752 30.86C251.085 30.86 251.425 30.8067 251.772 30.7C252.132 30.5933 252.492 30.4067 252.852 30.14C253.105 29.9667 253.325 29.9467 253.512 30.08C253.698 30.2 253.798 30.38 253.812 30.62C253.838 30.86 253.745 31.0533 253.532 31.2C253.105 31.5467 252.638 31.8 252.132 31.96C251.625 32.1067 251.132 32.18 250.652 32.18ZM256.765 32.08C256.432 32.08 256.165 31.98 255.965 31.78C255.765 31.5667 255.665 31.3 255.665 30.98C255.665 30.66 255.765 30.4 255.965 30.2C256.165 29.9867 256.432 29.88 256.765 29.88C257.098 29.88 257.358 29.9867 257.545 30.2C257.745 30.4 257.845 30.66 257.845 30.98C257.845 31.3 257.745 31.5667 257.545 31.78C257.358 31.98 257.098 32.08 256.765 32.08Z" fill="#6C757D"/>
</svg>
